<svg width="125" height="128" viewBox="0 0 125 128" fill="none" xmlns="http://www.w3.org/2000/svg">
  <path d="M69.4415 0.435278C82.3863 2.53084 91.8792 12.8113 101.338 21.986C110.95 31.3088 121.944 40.5188 124.408 53.7508C126.896 67.1092 121.155 80.4644 114.418 92.2288C108.001 103.434 98.5986 112.244 87.3566 118.45C75.8903 124.78 63.1886 129.296 50.2237 127.664C37.0383 126.005 24.8632 119.234 15.7691 109.443C6.89705 99.8908 2.36144 87.266 0.641078 74.2801C-1.03859 61.6014 0.502972 48.6876 6.20752 37.2688C11.9042 25.8658 21.3953 17.1957 32.3456 10.8172C43.741 4.17938 56.4545 -1.6671 69.4415 0.435278Z" fill="#FFEFF7"/>
</svg>
