<svg width="124" height="127" viewBox="0 0 124 127" fill="none" xmlns="http://www.w3.org/2000/svg">
  <path d="M93.4045 16.2792C103.672 22.8879 115.933 27.9477 121.226 38.9579C126.528 49.9876 122.821 62.7532 121.599 74.9318C120.339 87.4867 121.956 101.459 113.975 111.226C105.97 121.021 92.3179 123.787 79.869 125.996C68.5195 128.011 57.029 126.937 46.099 123.274C35.5737 119.746 26.5178 113.418 18.7283 105.503C10.6144 97.2591 2.36116 88.2597 0.41169 76.8531C-1.54716 65.3917 3.89131 54.3849 8.14221 43.5634C12.5623 32.3112 16.3206 20.3365 25.6361 12.6392C35.4314 4.54551 48.1076 -0.621154 60.7913 0.0601147C73.1635 0.724651 82.9833 9.57172 93.4045 16.2792Z" fill="#ECE7E2"/>
</svg>
