<svg width="124" height="118" viewBox="0 0 124 118" fill="none" xmlns="http://www.w3.org/2000/svg">
  <path d="M90.3985 6.87996C101.287 12.8141 108.963 22.7915 114.79 33.7243C120.743 44.8946 124.864 57.022 123.845 69.6341C122.763 83.0218 118.822 96.8981 108.946 106.019C99.2052 115.016 85.1037 116.414 71.8883 117.62C59.411 118.758 47.1672 117.402 35.5507 112.715C22.898 107.61 8.88285 102.014 2.88246 89.7776C-3.10211 77.5735 1.58108 63.2547 4.82556 50.0583C7.82605 37.8543 11.9188 25.827 20.7958 16.9179C29.7264 7.95492 41.5396 2.43999 54.0729 0.632487C66.5386 -1.16529 79.3436 0.854793 90.3985 6.87996Z" fill="#F8EAE2"/>
</svg>
