<svg width="123" height="122" viewBox="0 0 123 122" fill="none" xmlns="http://www.w3.org/2000/svg">
  <path d="M70.5737 1.14938C83.2409 3.32094 95.5832 7.7867 104.825 16.7673C114.483 26.1515 121.508 38.4688 122.815 51.912C124.114 65.2645 118.357 77.8677 111.909 89.612C105.373 101.518 98.1566 114.097 85.7315 119.459C73.3994 124.781 59.6487 120.501 46.4926 117.842C33.2427 115.164 18.3955 114.178 9.39989 104.031C0.430142 93.9144 0.506241 79.0328 0.0712757 65.4836C-0.332191 52.9155 0.846371 40.2934 7.00241 29.3494C13.1754 18.3753 22.8086 9.76071 34.2774 4.67317C45.6781 -0.384126 58.2909 -0.956282 70.5737 1.14938Z" fill="#E8E0DA"/>
</svg>
