<svg width="128" height="131" viewBox="0 0 128 131" fill="none" xmlns="http://www.w3.org/2000/svg">
  <path d="M76.3358 0.126808C90.375 1.43386 103.493 8.967 112.737 19.6799C121.781 30.1613 124.442 44.2012 126.241 57.9637C128.053 71.8223 130.141 86.7134 123.074 98.7471C116.084 110.65 101.937 115.239 89.3495 120.782C77.1054 126.174 64.4414 133.248 51.3986 130.311C38.4921 127.406 30.256 115.535 21.5477 105.518C13.1501 95.859 4.76756 86.043 2.01666 73.5112C-0.923361 60.1178 -1.39354 45.228 5.7488 33.5456C12.7693 22.0625 26.9948 18.5657 39.1181 12.826C51.2688 7.07341 62.9646 -1.11805 76.3358 0.126808Z" fill="#F4ECF0"/>
</svg>
