<svg width="32" height="30" viewBox="0 0 32 30" fill="none" xmlns="http://www.w3.org/2000/svg">
  <path d="M31.0013 4.63971C29.6613 1.8897 25.8013 -0.360296 21.3113 0.949704C19.1658 1.56944 17.2938 2.89849 16.0013 4.71971C14.7088 2.89849 12.8369 1.56944 10.6913 0.949704C6.19133 -0.340296 2.34133 1.8897 1.00133 4.63971C-0.878668 8.48971 -0.0986679 12.8197 3.32133 17.5097C6.00133 21.1797 9.83133 24.8997 15.3913 29.2197C15.567 29.3568 15.7835 29.4312 16.0063 29.4312C16.2292 29.4312 16.4456 29.3568 16.6213 29.2197C22.1713 24.9097 26.0113 21.2197 28.6913 17.5097C32.1013 12.8197 32.8813 8.48971 31.0013 4.63971Z" fill="black"/>
</svg>
