<svg width="496" height="664" viewBox="0 0 496 664" fill="none" xmlns="http://www.w3.org/2000/svg">
  <path d="M286.15 185.387L290.01 187.287L294.425 190.613L297.909 195.404L294.861 196.71L286.15 194.097L283.102 187.129L286.15 185.387Z" fill="#655E56"/>
  <path d="M92.3438 257.248V240.699L109.329 235.037L119.781 240.699V257.248L107.587 262.91L92.3438 257.248Z" fill="#3F312B"/>
  <path d="M54.8908 501.573C54.5424 493.56 57.9394 483.137 59.6815 478.927L67.9561 472.829L81.0215 463.248C80.586 474.136 79.9763 496.783 81.0215 500.267C82.3281 504.622 93.216 535.108 98.0067 545.996C102.797 556.884 100.62 562.981 98.0067 573.434C103.959 573.434 116.995 573.956 121.525 576.047C127.186 578.66 121.525 604.791 121.525 607.839C121.525 610.888 115.863 614.808 112.379 610.017C108.895 605.226 99.7487 603.484 86.6833 595.209C73.6178 586.935 74.4888 582.144 74.4888 578.224C78.0513 568.311 67.9561 557.32 67.9561 552.529C67.9561 547.738 68.828 529.882 59.6815 520.736C50.535 511.59 55.3263 511.59 54.8908 501.573Z" fill="#56433B"/>
  <path d="M214.289 547.738L250.437 513.332H270.906L348.428 486.33L297.473 562.11L359.316 589.547L372.381 665.327L140.251 667.94L128.492 640.503L154.623 603.048L214.289 547.738Z" fill="#B79383"/>
  <path d="M325.781 485.893L345.815 451.487L354.961 435.809H370.204L375.43 451.487C374.414 465.279 371.946 493.994 370.204 498.523C368.462 503.052 347.122 505.927 336.669 506.798L325.781 492.861V485.893Z" fill="#C4B7B3"/>
  <path d="M362.798 664.891C361.753 663.498 355.104 618.727 351.91 596.515L352.781 593.902L365.411 592.16L392.413 606.532C398.51 604.355 409.921 602.874 406.785 614.371C403.649 625.869 388.058 638.906 380.654 643.987L381.961 664.891H362.798Z" fill="#D8D8D8"/>
  <path d="M212.549 473.264L191.645 491.555V525.526L219.082 553.399L268.295 508.976L254.359 487.636L212.549 473.264Z" fill="#B28F7F"/>
  <path d="M127.184 487.055L146.537 464.195C149.999 461.996 157.111 457.688 157.866 458.04C158.622 458.392 179.58 458.773 189.965 458.919L200.35 478.702L197.046 493.21L167.307 502.442H139.457L127.184 487.055Z" fill="#C4B7B3"/>
  <path d="M72.3098 532.927C67.0836 519.687 72.7454 492.279 76.2295 480.23L139.814 468.471C139.379 472.39 138.508 480.839 138.508 483.278C138.508 486.327 148.525 496.344 149.396 498.086C150.267 499.828 161.155 502.441 165.945 500.263C169.778 498.521 183.511 488.214 189.899 483.278C194.69 499.828 208.887 535.279 227.353 544.686L234.322 540.766L239.548 552.961C236.76 578.743 219.804 580.834 211.675 578.656L206.884 590.415C190.16 632.922 164.203 634.257 153.315 629.612L145.912 645.726L153.315 667.937C134.879 669.099 98.5275 670.289 100.618 665.76C103.231 660.098 114.99 586.06 105.844 584.318C96.6984 582.576 78.8426 549.477 72.3098 532.927Z" fill="#D8D8D8"/>
  <path d="M165.945 500.263C169.778 498.521 183.511 488.214 189.899 483.278L188.592 487.198C184.382 491.553 175.352 500.786 172.913 502.876C169.865 505.49 164.639 506.361 157.67 505.49C152.096 504.793 148.379 501.715 147.218 500.263L135.895 485.456L139.441 471.955C139.009 476.121 138.508 481.428 138.508 483.278C138.508 486.327 148.525 496.344 149.396 498.086C150.267 499.828 161.154 502.441 165.945 500.263Z" fill="#CDCCCC"/>
  <path d="M246.082 430.147L253.921 426.228L256.534 424.486L281.794 414.033V426.228L328.83 464.118L317.071 497.217V508.54L263.938 475.877L246.082 430.147Z" fill="#B28F7F"/>
  <path d="M288.764 188.872C282.144 179.465 282.231 153.305 283.102 141.4H270.036L247.389 165.354L209.499 200.195V215.438L192.078 248.537C201.224 250.134 219.777 253.502 220.822 254.199C222.129 255.07 303.135 250.279 305.312 250.279C307.054 250.279 316.781 219.793 321.426 204.55C313.297 203.244 295.383 198.279 288.764 188.872Z" fill="#BE9A8A"/>
  <path d="M290.074 187.355C289.925 187.279 289.779 187.203 289.634 187.129C289.774 187.176 289.921 187.251 290.074 187.355C304.17 194.546 339.357 208.832 371.076 210.211C411.143 211.953 438.145 277.716 439.887 282.507C441.281 286.34 457.308 322.139 465.147 339.56C453.243 330.704 420.289 320.397 383.706 350.012C347.122 379.627 250.002 314.155 206.015 277.716L199.918 244.182L203.838 227.196C207.031 235.326 227.791 253.066 264.374 243.311C308.879 231.443 295.633 191.112 290.074 187.355Z" fill="#80776D"/>
  <path d="M205.142 247.666C198.522 236.517 205.577 226.181 209.932 222.406H206.449L135.024 236.343L110.635 250.279C116.732 260.587 130.146 282.769 135.024 289.04C141.121 296.88 146.783 310.381 133.282 320.397C119.781 330.414 111.07 324.753 88.4229 334.769C70.3055 342.783 69.8409 380.208 71.8733 397.919L190.769 445.826L326.215 390.951C350.749 393.274 398.946 394.958 395.462 383.112C391.978 371.266 380.074 342.173 374.557 329.108C355.394 295.137 350.168 287.734 299.648 292.089C249.128 296.444 229.53 282.072 227.353 281.201C225.175 280.33 213.417 261.603 205.142 247.666Z" fill="#B79383"/>
  <path d="M354.523 444.955C355.394 445.826 393.72 467.166 420.722 461.505C399.382 456.279 356.266 445.652 354.523 444.955Z" fill="#DBBAAC"/>
  <path d="M274.388 114.398C274.388 116.836 273.517 118.317 273.082 118.753C274.388 121.366 272.211 125.721 270.904 128.77C269.598 131.818 271.34 132.254 272.646 130.947C273.953 129.641 273.953 128.334 280.05 125.721C286.147 123.108 280.486 114.833 279.179 113.962C277.872 113.091 274.388 111.349 274.388 114.398Z" fill="#B38F7E"/>
  <path d="M155.058 56.0381L216.03 42.5371L231.709 54.2961L245.646 80.8625C249.275 95.6701 257.753 123.021 262.631 113.962C268.728 102.638 283.971 92.186 292.681 99.5897C299.65 105.513 293.843 121.22 290.068 128.334C284.494 148.89 272.357 149.674 266.986 147.497C266.289 175.718 228.37 196.71 209.498 203.678L191.641 180.16L176.398 158.82L151.574 136.609C152.155 135.302 153.316 132.253 153.316 130.511C153.316 128.334 153.752 123.979 149.396 120.495C145.041 117.01 146.348 109.607 146.348 108.3C146.348 106.994 147.654 102.638 147.654 101.332C146.26 92.6215 152.009 67.5067 155.058 56.0381Z" fill="#BE9A8A"/>
  <path d="M202.53 166.225C196.433 163.612 189.755 166.371 188.594 167.096L189.9 167.968L190.771 169.71L202.53 166.225Z" fill="#764E44"/>
  <path d="M495.633 424.92C493.542 414.119 472.115 361.77 461.663 336.946L434.225 316.912L389.802 334.333L379.785 343.914C385.302 352.479 392.241 372.048 391.544 381.804C385.156 382.965 373.775 384.591 363.671 381.804C351.041 378.32 295.295 388.772 286.149 394.87C273.955 400.676 247.911 414.555 241.291 423.614C234.671 432.672 242.888 435.808 247.824 436.244L256.098 434.937L265.679 431.017L280.923 416.21C272.503 427.824 254.096 452.271 247.824 457.148C239.984 463.246 234.758 471.52 234.758 475.005C234.758 478.489 235.193 482.408 238.242 483.279C241.291 484.15 246.954 482.844 247.824 481.537C248.52 480.492 260.889 471.52 266.986 467.165L286.149 448.874C280.197 455.406 267.596 469.256 264.808 472.391C261.324 476.311 253.049 480.231 252.614 483.279C248.259 485.312 239.636 490.248 239.984 493.732C240.42 498.087 240.42 505.055 245.21 505.055C250.001 505.055 254.356 502.442 256.098 501.571C257.84 500.7 275.261 490.683 277.003 489.812C278.745 488.941 294.424 475.005 296.166 472.391C297.908 469.778 288.762 485.457 284.842 487.634C280.923 489.812 272.212 498.087 271.777 498.958C271.341 499.829 260.453 503.749 260.018 510.281C259.582 516.814 266.115 518.556 267.857 518.121C269.599 517.685 281.793 512.894 283.971 510.281C286.143 507.676 310.384 489.059 318.302 476.862C313.773 483.871 304.431 497.918 302.698 498.958C300.521 500.264 291.81 509.41 292.681 513.765C293.553 518.121 297.472 518.121 298.779 518.121C300.085 518.121 309.231 512.023 313.151 508.539C317.07 505.055 327.087 491.119 328.829 487.634C330.571 484.15 344.072 464.552 349.734 454.535L355.397 444.518C370.03 456.713 398.658 460.632 411.143 461.068C464.276 468.472 498.246 438.421 495.633 424.92Z" fill="#BE9A8A"/>
  <path d="M412.449 377.013C424.063 373.383 453.91 370.828 480.39 389.643C468.34 383.836 437.883 373.18 412.449 377.013Z" fill="#B38F7E"/>
  <path d="M147.653 386.16C138.943 357.938 126.313 335.205 121.087 327.365H125.442C130.668 327.365 145.621 366.562 152.444 386.16L172.478 415.34L145.305 414.033C146.569 403.451 147.324 393.251 147.653 386.16Z" fill="#C4B7B3"/>
  <path d="M307.923 291.652C307.988 290.738 307.965 291.057 307.913 292.466C308.091 301.555 314.9 363.108 317.94 386.005L313.584 386.917C306.508 338.889 307.633 300.017 307.913 292.466C307.906 292.114 307.909 291.842 307.923 291.652Z" fill="#C4B7B3"/>
  <path d="M343.638 361.771C340.59 359.158 336.67 362.206 331.88 364.384C328.567 365.89 315.254 379.218 306.453 388.337C307.714 387.989 324.22 385.019 332.315 383.577C335.676 379.062 339.588 374.031 340.59 373.53C342.332 372.659 346.687 364.384 343.638 361.771Z" fill="#B28F7F"/>
  <path d="M269.6 374.838C268.903 377.973 268.438 390.371 268.293 396.178L281.358 394.871H283.972V386.596C283.972 383.548 280.487 374.838 278.745 373.095C277.003 371.353 270.471 370.918 269.6 374.838Z" fill="#B28F7F"/>
  <path d="M10.4662 385.291C11.163 381.459 20.0475 367.145 24.4027 360.467L26.5801 358.289C36.7422 368.161 57.7631 388.078 60.5504 388.775C64.0345 389.646 77.1 394.872 84.5038 399.228C91.9075 403.583 120.652 410.987 124.571 410.987C127.707 410.987 170.3 411.567 191.205 411.858C196.431 409.244 224.74 400.534 226.918 400.099C229.095 399.663 254.355 398.792 264.808 396.179C275.26 393.566 280.051 383.549 280.486 391.388C280.835 397.66 273.953 403.583 270.469 405.76L241.725 455.845L229.966 485.46C223.724 484.008 206.884 479.624 189.463 473.701C172.043 467.778 149.396 470.072 140.25 471.959C116.296 473.265 93.2141 483.282 72.7448 484.589C52.2756 485.895 38.7746 475.443 27.8867 468.039C19.1763 462.116 14.3856 461.216 13.0791 461.506C0.449126 462.377 0.0137925 444.957 0.0137925 443.215C0.0137925 441.473 0.449309 437.553 0.0137925 424.923C-0.421724 412.293 9.59515 390.082 10.4662 385.291Z" fill="#C7A393"/>
  <path d="M239.982 423.614C246.602 414.556 272.646 400.677 284.84 394.87C291.941 390.136 327.131 382.777 348.425 381.354L279.613 416.211L264.37 431.018L254.789 434.938L246.515 436.244C241.579 435.809 233.362 432.673 239.982 423.614Z" fill="#BE9A8A"/>
  <path d="M354.523 494.603C362.188 478.925 361.781 457.875 360.62 449.31H365.411L388.929 456.714C394.736 457.294 406.611 459.065 407.656 461.504C408.701 463.943 411.576 478.78 412.882 485.893L414.189 518.557L388.929 561.673C372.234 560.802 336.928 558.537 329.263 556.447C321.598 554.356 292.68 536.994 279.179 528.574C272.936 524.509 259.494 516.205 255.661 515.508C251.828 514.812 240.418 507.379 235.192 503.749C229.965 503.053 222.562 499.104 219.513 497.217C207.319 494.168 197.302 486.329 194.253 485.458C191.204 484.587 177.268 475.876 174.219 472.392C171.171 468.908 175.09 466.731 177.268 466.731C179.446 466.731 199.044 476.747 201.657 477.183C204.27 477.618 212.98 481.103 215.158 479.361C217.335 477.618 213.416 471.086 206.448 466.731C199.479 462.375 191.205 440.6 190.334 439.293C189.463 437.986 185.978 429.712 184.672 427.534C183.365 425.356 183.365 422.308 184.672 420.13C185.717 418.388 190.334 419.404 192.511 420.13L199.044 431.018L209.932 448.439C212.835 450.762 219.077 455.843 220.82 457.585C222.562 459.327 223.868 458.311 224.304 457.585C222.852 453.665 219.687 445.477 218.642 444.084C217.597 442.69 215.884 432.47 215.158 427.534C215.013 425.211 215.071 419.956 216.464 417.517C218.206 414.469 218.206 408.807 218.642 406.629C219.077 404.452 223.868 397.919 228.659 404.887C232.491 410.462 230.256 415.63 228.659 417.517C231.098 415.427 239.256 412.581 243.031 411.42C245.499 411.42 250.087 411.681 248.693 412.726C246.951 414.032 245.209 417.517 246.08 422.308C246.777 426.141 255.371 438.422 259.581 444.084L260.452 445.826C264.371 443.618 272.211 438.612 272.211 436.244C272.211 433.286 269.162 428.841 267.855 426.663C265.241 425.792 257.403 409.678 262.194 403.58C266.026 398.703 272.211 407.645 274.824 412.726L281.356 416.21L285.275 423.179C277.872 430.728 264.022 447.48 267.855 454.1C271.687 460.72 304.003 487.635 319.681 500.265C328.101 504.91 346.858 510.282 354.523 494.603Z" fill="#B79383"/>
  <path d="M236.94 446.698C233.891 441.471 227.707 429.538 227.358 423.615C226.923 427.245 228.229 436.942 236.94 446.698Z" fill="#9F7F71"/>
  <path d="M230.403 437.552C225.874 437.204 220.677 441.762 218.645 444.085C218.645 447.221 220.677 451.198 221.693 452.795C222.39 451.401 230.984 446.988 235.194 444.956L230.403 437.552Z" fill="white"/>
  <path d="M194.254 171.886C196.867 171.451 201.077 167.531 202.528 166.225L190.77 169.709C190.77 170.289 191.752 172.303 194.254 171.886Z" fill="#61392F"/>
  <path d="M374.803 325.506C377.027 315.125 377.608 285.269 377.608 270.422C384.578 289.75 377.718 315.994 374.803 325.506C374.592 326.493 374.366 327.305 374.123 327.91C373.174 330.283 373.712 329.068 374.803 325.506Z" fill="#6B645C"/>
  <path d="M155.055 133.56C143.558 119.275 121.23 121.51 111.504 124.414C93.3862 128.595 83.3403 155.19 80.582 167.965C81.0175 193.371 84.6759 245.662 95.8251 251.585C106.974 257.508 116.44 250.278 119.778 245.923C130.231 253.588 147.652 250.568 155.055 248.1C172.186 241.277 207.491 226.237 211.672 220.663C216.899 213.695 208.624 200.629 204.704 184.951C200.785 169.272 188.155 166.223 184.235 163.61C181.099 161.52 180.025 158.674 179.88 157.513C177.267 145.319 162.895 137.915 160.717 137.044C158.975 136.347 156.217 134.431 155.055 133.56Z" fill="#B79383"/>
  <path d="M175.527 155.773C173.436 155.773 171.172 156.644 170.301 157.08C170.736 157.08 172.478 157.08 175.091 156.644C177.182 156.296 177.995 156.209 178.14 156.209C177.269 155.773 175.962 155.773 175.527 155.773Z" fill="black"/>
  <path d="M141.99 147.497C142.687 148.542 143.151 151.707 143.296 153.159C137.344 154.901 124.743 158.559 121.956 159.256C119.169 159.953 111.504 168.257 108.02 172.322C109.326 168.837 116.294 157.949 118.907 155.336C121.521 152.723 141.119 146.19 141.99 147.497Z" fill="#614943"/>
  <path d="M155.496 143.578C155.496 144.972 156.077 147.643 156.367 148.804C159.706 147.933 166.558 146.191 167.255 146.191C167.952 146.191 172.191 146.481 174.223 146.627C172.626 144.885 169.084 141.4 167.691 141.4C165.948 141.4 155.496 141.836 155.496 143.578Z" fill="#614943"/>
  <path d="M174.658 168.402C169.867 169.709 167.254 175.371 167.254 175.806C167.254 176.242 167.689 176.851 169.431 175.806C171.174 174.761 173.641 170.435 174.658 168.402Z" fill="#9C7D70"/>
  <path d="M180.756 167.529C180.466 168.546 180.059 170.752 180.756 171.449C181.627 172.32 181.191 168.4 180.756 167.529Z" fill="#9C7D70"/>
  <path d="M191.641 182.339C189.55 180.946 186.124 182.339 184.673 183.21C177.008 182.862 170.736 195.26 168.559 201.502C183.54 186.172 194.835 186.985 198.609 189.307C197.157 187.565 193.731 183.733 191.641 182.339Z" fill="#A46868"/>
  <path d="M198.609 189.306C196.141 193.661 187.025 201.936 170.301 200.193C175.091 194.677 187.46 184.776 198.609 189.306Z" fill="#975E5E"/>
  <path d="M105.408 240.262C108.544 238.52 104.682 237.214 102.359 236.778C98.1785 236.081 98.0043 233.875 98.4398 232.858C98.2947 231.407 97.6559 230.332 96.2622 237.649C94.5202 246.795 100.617 244.182 100.617 243.311C100.617 242.44 101.488 242.44 105.408 240.262Z" fill="#A57F6F"/>
  <path d="M127.187 172.757C132.065 165.789 141.414 166.515 145.914 166.66C143.011 167.053 137.727 168.039 134.591 170.58C131.765 172.87 125.542 175.666 122.747 177.121C122.467 177.305 122.201 177.452 121.961 177.548C122.176 177.423 122.441 177.28 122.747 177.121C124.495 175.972 126.812 173.383 127.187 172.757Z" fill="black"/>
  <path d="M66.6498 390.953C65.4612 390.636 64.0715 390.29 62.5364 389.938C51.917 387.775 36.9556 387.649 30.0664 387.904C37.2873 385.196 52.8221 387.707 62.5364 389.938C64.001 390.236 65.3829 390.573 66.6498 390.953Z" fill="#B38F7E"/>
  <path d="M95.3934 140.965C96.4386 126.331 113.54 122.963 121.96 123.108L108.894 112.22C98.4416 103.51 87.4086 117.592 83.1987 125.721C81.747 126.738 76.666 131.557 67.9556 142.707C57.0677 156.643 36.5994 212.825 35.7283 212.825C34.8573 212.825 9.59736 274.668 15.6946 329.979C20.5724 374.227 57.5042 391.096 75.3603 393.999L73.6183 384.418C73.7634 368.159 78.3217 335.292 95.3934 333.898C126 331.4 145.043 317.349 142.865 305.154C141.123 295.399 121.235 266.248 111.508 252.892C103.669 257.247 95.8296 253.328 95.8296 252.892C95.8296 252.457 96.7002 244.617 95.3934 239.391C94.0865 234.165 98.442 226.761 100.184 212.825C101.926 198.888 94.0868 159.256 95.3934 140.965Z" fill="#56433B"/>
  <path d="M115.425 242.875C114.119 246.069 110.547 252.631 106.715 253.327C110.054 252.747 116.47 249.843 115.425 242.875Z" fill="#A57F6F"/>
  <path d="M110.636 259.859C108.198 257.42 106.717 253.036 106.281 251.148C106.63 249.406 109.911 248.971 111.507 248.971L115.427 256.374C114.846 258.552 113.075 262.298 110.636 259.859Z" fill="white"/>
  <path d="M116.734 119.188C122.977 116.866 138.336 115.094 149.834 126.592L154.807 133.223C154.896 133.337 154.98 133.45 155.06 133.56L154.807 133.223C151.152 128.541 139.382 120.971 121.525 122.672L116.734 119.188Z" fill="#533D34"/>
  <path d="M155.058 248.102C172.188 241.278 207.494 226.239 211.675 220.664C175.789 238.085 145.041 248.102 118.91 242.004C129.363 249.669 147.654 250.57 155.058 248.102Z" fill="#A57F6F"/>
  <path d="M139.813 41.6666C130.755 61.8746 141.556 75.3465 148.088 79.5565C149.685 77.5241 152.793 73.0238 152.444 71.2818C152.009 69.1042 156.364 67.7976 159.848 69.1042C163.332 70.4107 168.994 69.1042 172.478 67.7976C175.962 66.4911 187.286 61.2649 190.77 57.7808C194.254 54.2966 210.368 49.506 221.256 52.9901C232.144 56.4742 233.015 68.6687 231.708 71.2818C230.402 73.8949 221.256 87.3959 235.628 91.3155C250 95.2352 248.258 108.301 249.129 111.785C250 115.269 263.065 117.882 264.372 112.656C265.678 107.43 275.26 99.5903 283.099 97.8483C287.016 96.9778 292.68 99.7355 295.294 102.639C297.036 99.5903 292.68 57.7808 292.245 52.9901C291.809 48.1994 279.179 31.6498 277.437 24.246C275.695 16.8422 258.275 8.5675 255.662 6.82543C253.049 5.08337 233.45 -1.44938 229.095 0.292555C224.74 2.03449 213.417 2.03462 202.529 0.292555C191.641 -1.44951 179.011 11.1805 172.478 14.6646C165.945 18.1487 151.137 16.4067 139.813 41.6666Z" fill="#3D2E2B"/>
  <path d="M197.739 101.332C194.952 100.983 184.093 104.09 179.012 105.687C179.012 107.08 180.463 109.171 181.189 110.042L196.868 107.429L215.16 106.123C210.514 104.671 200.526 101.68 197.739 101.332Z" fill="#614A45"/>
  <path d="M164.2 113.527C164.2 112.83 161.587 110.333 160.28 109.172C158.538 109.172 154.706 109.259 153.312 109.607C151.918 109.956 148.376 111.204 146.779 111.785L145.473 115.269C146.053 115.269 147.65 115.182 149.392 114.834C151.57 114.398 164.2 114.398 164.2 113.527Z" fill="#614A45"/>
  <path d="M204.706 119.188C199.48 120.931 193.237 119.334 190.77 118.317C193.818 119.043 200.874 119.537 204.706 117.447C208.539 115.356 212.981 117.011 214.723 117.882C212.981 117.446 211.239 117.011 204.706 119.188Z" fill="black"/>
  <path d="M185.105 150.983C184.408 150.286 182.782 150.402 182.057 150.548C181.621 151.273 180.75 152.986 180.75 154.031C180.75 155.338 181.186 156.209 182.492 154.902C183.799 153.596 185.976 151.854 185.105 150.983Z" fill="#A7887A"/>
  <path d="M165.946 122.672C164.059 124.704 159.065 128.159 154.188 125.72C157.381 125.43 164.204 124.414 165.946 122.672Z" fill="black"/>
  <path d="M266.988 147.497C270.618 147.497 279.357 145.93 285.28 139.658C282.812 143.868 275.699 151.33 266.988 147.497Z" fill="#B38F7E"/>
  <path d="M234.32 475.007C234.32 471.523 239.547 463.248 247.387 457.151C249.939 455.166 254.5 449.941 259.58 443.659L270.033 430.584C273.807 423.761 281.53 409.941 282.227 409.244C282.924 408.547 287.163 406.631 289.195 405.76L291.565 440.166L271.339 452.36L269.14 455.409L273.393 460.635L266.549 467.168C260.451 471.523 248.083 480.495 247.387 481.54C246.516 482.846 240.854 484.153 237.804 483.282C234.755 482.411 234.32 478.491 234.32 475.007Z" fill="#BE9A8A"/>
  <path d="M252.176 483.282C252.612 480.233 260.887 476.314 264.371 472.394C265.805 470.781 269.834 466.334 274.221 461.506L291.565 476.749C286.263 481.819 277.817 489.189 276.565 489.815C274.823 490.686 257.403 500.703 255.661 501.574C253.919 502.445 249.563 505.058 244.773 505.058C239.982 505.058 239.982 498.09 239.547 493.734C239.198 490.25 247.821 485.314 252.176 483.282Z" fill="#BE9A8A"/>
  <path d="M271.339 498.961C271.775 498.09 280.485 489.815 284.405 487.637C286.467 486.492 289.975 481.61 292.584 477.62L307.052 489.28C297.129 498.994 285.038 508.48 283.534 510.284C281.355 512.897 269.162 517.688 267.42 518.123C265.677 518.559 259.145 516.817 259.58 510.284C260.016 503.751 270.904 499.832 271.339 498.961Z" fill="#BE9A8A"/>
  <path d="M292.244 513.768C291.373 509.413 300.083 500.267 302.261 498.961C303.064 498.479 305.504 495.199 308.342 491.121L319.74 500.267C317.032 503.831 314.345 507.092 312.713 508.542C308.794 512.026 299.648 518.123 298.341 518.123C297.035 518.123 293.115 518.123 292.244 513.768Z" fill="#BE9A8A"/>
  <path d="M209.496 203.678C228.368 196.709 266.287 175.718 266.984 147.496C258.274 169.272 224.304 196.274 209.496 203.678Z" fill="#B38F7E"/>
  <path d="M383.703 350.011C420.286 320.395 453.24 330.703 465.144 339.558C463.238 335.322 460.848 330 458.302 324.315L450.337 320.395L439.884 306.023L398.51 315.169L378.477 339.558L383.703 350.011Z" fill="#80776D"/>
  <path d="M175.09 627.437C148.61 638.935 108.601 592.16 91.9062 567.336C133.716 613.501 163.331 622.647 171.17 623.082C177.442 623.43 186.849 615.969 190.768 612.194C189.375 616.723 179.735 624.243 175.09 627.437Z" fill="#CDCCCC"/>
  <path d="M362.359 481.537C386.4 463.419 409.54 478.923 418.105 488.94L431.607 530.315C440.666 558.188 438.575 580.544 436.398 588.238C439.185 590.329 439.882 610.885 439.882 620.902L406.347 614.369C399.234 615.966 383.788 618.724 378.91 616.982C374.032 615.24 362.07 603.772 356.698 598.255L348.424 595.206C342.616 595.206 330.131 594.945 326.647 593.9C323.163 592.855 314.453 588.819 310.533 586.932C285.447 576.828 283.241 548.171 285.273 535.105C283.531 568.204 307.049 577.786 310.533 577.786C314.017 577.786 319.679 573.431 328.825 565.591C337.97 557.752 332.744 553.832 335.357 536.847C337.448 523.259 333.325 508.829 331.002 503.313L323.163 497.215L326.647 490.683L332.744 495.473C333.906 496.199 337.099 497.215 340.584 495.473C344.068 493.731 350.746 494.747 353.649 495.473L362.359 481.537Z" fill="#D8D8D8"/>
  <path d="M317.942 550.349L286.149 532.928L285.278 535.541C284.582 544.948 287.601 555.139 289.198 559.059C295.121 571.602 305.893 576.77 310.538 577.786C314.023 577.786 323.313 570.673 327.087 567.334L333.185 561.672L334.927 555.139L334.492 545.993C334.782 539.461 337.055 527.317 335.798 528.573C334.491 529.879 331.879 546.139 329.701 553.833L317.942 550.349Z" fill="#C4C4C4"/>
  <path d="M356.324 598.69L348.426 595.645C351.351 596.225 357.377 597.472 358.079 597.82C358.957 598.255 361.151 600.43 362.906 602.171L362.906 602.171C364.661 603.911 376.07 612.177 383.968 614.353C390.286 616.093 401.812 615.078 406.785 614.353C379.58 620.444 376.947 615.658 375.192 615.223C373.788 614.875 362.028 604.056 356.324 598.69Z" fill="#C4C4C4"/>
  <path d="M268.291 641.371C268.727 642.678 267.42 643.984 264.807 643.113C264.662 642.532 264.459 641.197 264.807 640.5C265.242 639.629 265.242 639.629 266.549 639.629C267.856 639.629 267.856 640.064 268.291 641.371Z" fill="#F5EEDE"/>
  <path d="M260.887 655.307C261.758 654.436 261.758 654.436 263.936 654.436C264.516 654.582 265.852 655.133 266.549 656.179C267.42 657.485 266.549 658.356 266.113 659.663C265.678 660.969 263.065 660.969 261.323 660.534C259.581 660.098 260.016 656.179 260.887 655.307Z" fill="#F5EEDE"/>
  <path d="M274.442 304.721C266.457 310.092 249.095 321.27 243.52 323.012C236.552 325.19 257.892 323.012 274.442 304.721Z" fill="#A57F6F"/>
</svg>
